#!OML:ASF F:\VICON\USERDATA\INSTALL\rory3\rory3.ASF
:FULLY-SPECIFIED
:DEGREES
190
root -11.7747 18.14 12.433 0.605597 71.4841 -0.907585
lowerback 11.4696 4.01325 5.15548
upperback 0.953641 5.98737 -0.517084
thorax -4.82529 2.85794 -4.3281
lowerneck -19.7792 -4.77918 -11.9689
upperneck 30.3935 -4.0411 5.5255
head 14.1046 -2.20418 3.60257
rclavicle 6.95746e-015 -1.59028e-015
rhumerus -29.0589 -2.37658 -80.2029
rradius 31.3459
rwrist 4.228
rhand -19.3835 8.50973
rfingers 7.12502
rthumb 6.93498 -21.3567
lclavicle 6.95746e-015 -1.59028e-015
lhumerus -36.9229 11.2782 76.4246
lradius 33.3208
lwrist -4.74576
lhand -20.9681 28.6329
lfingers 7.12502
lthumb 5.40517 58.5439
rfemur 2.6671 -14.1066 17.7492
rtibia 24.0697
rfoot -11.7355 -25.2929
rtoes -13.0481
lfemur -21.2053 8.08338 -21.7231
ltibia 21.0771
lfoot -8.91788 5.57638
ltoes -1.38111
191
root -11.6991 18.1357 12.4592 1.20532 72.1512 -0.483101
lowerback 11.4252 4.06992 5.13146
upperback 0.936646 6.05347 -0.589161
thorax -4.80595 2.89093 -4.39555
lowerneck -19.772 -4.82915 -11.9914
upperneck 30.2659 -4.18338 5.74846
head 14.068 -2.23516 3.66862
rclavicle -1.00535e-013 3.97569e-015
rhumerus -28.9009 -2.33638 -80.2541
rradius 31.5915
rwrist 3.85093
rhand -19.1579 8.68872
rfingers 7.12502
rthumb 7.15278 -21.1704
lclavicle -1.00535e-013 3.97569e-015
lhumerus -37.1755 11.4031 76.1512
lradius 33.186
lwrist -5.05208
lhand -20.8974 28.7725
lfingers 7.12502
lthumb 5.47345 58.6818
rfemur 3.15986 -14.3956 17.62
rtibia 23.4462
rfoot -11.4055 -25.4794
rtoes -13.9146
lfemur -21.3971 6.29869 -21.7109
ltibia 20.019
lfoot -9.26453 6.93666
ltoes -0.31605
192
root -11.6197 18.1325 12.4874 1.34708 72.5895 -0.479221
lowerback 11.4337 4.12956 5.19533
upperback 0.936245 6.13964 -0.621216
thorax -4.79159 2.93258 -4.4763
lowerneck -19.7536 -4.78823 -11.9703
upperneck 30.0582 -4.17493 5.86503
head 13.9732 -2.21065 3.70785
rclavicle -1.54058e-014 7.55382e-015
rhumerus -28.6228 -2.15462 -80.3102
rradius 31.7325
rwrist 3.65057
rhand -18.9425 8.91338
rfingers 7.12502
rthumb 7.36065 -20.9386
lclavicle -1.54058e-014 7.55382e-015
lhumerus -37.3905 11.4337 75.8684
lradius 32.9814
lwrist -4.98705
lhand -20.9572 28.8961
lfingers 7.12502
lthumb 5.41566 58.8069
rfemur 3.64984 -14.3738 17.6375
rtibia 22.9471
rfoot -11.4586 -25.6845
rtoes -13.3368
lfemur -21.4769 4.26173 -21.3921
ltibia 19.0931
lfoot -9.69415 8.80967
ltoes 2.07298
193
root -11.5407 18.1256 12.5275 0.566409 72.4406 -1.23726
lowerback 11.6471 4.36664 5.27493
upperback 1.0038 6.47819 -0.575269
thorax -4.79841 3.09994 -4.53293
lowerneck -19.7996 -4.76894 -11.7873
upperneck 29.8015 -4.14786 5.67655
head 13.8579 -2.20127 3.59486
rclavicle 9.88954e-014 -9.54166e-015
rhumerus -28.3786 -1.36827 -80.4647
rradius 32.0385
rwrist 2.92939
rhand -18.7719 8.75517
rfingers 7.12502
rthumb 7.52529 -21.091
lclavicle 9.88954e-014 -9.54166e-015
lhumerus -37.5271 11.6709 75.5163
lradius 32.6619
lwrist -5.03046
lhand -20.5848 28.5723
lfingers 7.12502
lthumb 5.77522 58.4736
rfemur 4.28967 -13.9638 17.8441
rtibia 22.4755
rfoot -11.5182 -25.7131
rtoes -12.6043
lfemur -21.3842 3.50914 -20.9627
ltibia 18.3515
lfoot -9.80548 10.3664
ltoes 1.75768
194
root -11.4564 18.1124 12.5539 -0.339148 72.7887 -2.28081
lowerback 11.6759 4.43143 5.60974
upperback 1.01831 6.61364 -0.493336
thorax -4.75653 3.16297 -4.6511
lowerneck -19.9424 -4.79581 -11.6683
upperneck 29.7387 -4.1573 5.51077
head 13.8551 -2.21259 3.50197
rclavicle -6.40584e-014 6.36111e-015
rhumerus -28.1708 -0.926139 -80.5101
rradius 32.2826
rwrist 2.46866
rhand -18.4159 8.71827
rfingers 7.12502
rthumb 7.86898 -21.1153
lclavicle -6.40584e-014 6.36111e-015
lhumerus -37.7635 11.8632 75.2987
lradius 32.3763
lwrist -5.3613
lhand -20.5199 28.364
lfingers 7.12502
lthumb 5.83792 58.2636
rfemur 4.76427 -14.1285 18.1404
rtibia 22.0746
rfoot -11.2274 -25.8332
rtoes -13.4443
lfemur -21.622 2.99542 -20.6858
ltibia 17.8059
lfoot -9.60633 11.1635
ltoes 0.479434
195
root -11.3691 18.0972 12.5752 -0.891774 73.1297 -3.0571
lowerback 11.6089 4.51973 5.77865
upperback 1.00077 6.75605 -0.359766
thorax -4.7188 3.23198 -4.6169
lowerneck -20.06 -4.84474 -11.8579
upperneck 29.7306 -4.20186 5.68058
head 13.8922 -2.22881 3.59486
rclavicle -7.33018e-014 -8.74653e-015
rhumerus -27.8493 -1.18688 -80.3365
rradius 32.2765
rwrist 2.72291
rhand -18.1419 8.90014
rfingers 7.12502
rthumb 8.13338 -20.9233
lclavicle -7.33018e-014 -8.74653e-015
lhumerus -38.1241 12.2619 75.058
lradius 32.2315
lwrist -5.58498
lhand -21.128 28.5854
lfingers 7.12502
lthumb 5.25078 58.5004
rfemur 5.10852 -14.1303 18.4143
rtibia 21.6749
rfoot -11.161 -26.0627
rtoes -13.7438
lfemur -21.99 2.67642 -20.5411
ltibia 17.4963
lfoot -9.67086 11.5875
ltoes -0.891289
196
root -11.2821 18.0746 12.5882 -1.82032 73.3333 -4.03617
lowerback 11.8211 4.64452 6.15804
upperback 0.976678 6.98949 -0.297053
thorax -4.79824 3.33587 -4.81296
lowerneck -20.0843 -4.88214 -12.0342
upperneck 29.7267 -4.29931 6.01439
head 13.92 -2.24386 3.74452
rclavicle -2.35063e-014 -1.55052e-014
rhumerus -27.591 -1.64549 -80.1862
rradius 32.2057
rwrist 3.1268
rhand -17.9821 9.13487
rfingers 7.12502
rthumb 8.28762 -20.6826
lclavicle -2.35063e-014 -1.55052e-014
lhumerus -38.4443 12.7444 74.603
lradius 31.9954
lwrist -5.78337
lhand -21.1993 28.4434
lfingers 7.12502
lthumb 5.18196 58.36
rfemur 5.5238 -14.0727 18.6746
rtibia 21.5001
rfoot -11.3836 -26.2529
rtoes -13.4901
lfemur -22.0708 2.85206 -20.4639
ltibia 17.1724
lfoot -9.36215 11.6555
ltoes -5.16851
